<?xml version="1.0" encoding="UTF-8"?>
<!DOCTYPE svg PUBLIC "-//W3C//DTD SVG 1.1//EN" "http://www.w3.org/Graphics/SVG/1.1/DTD/svg11.dtd">
<!-- Creator: CorelDRAW 2019 (64-Bit) -->
<svg xmlns="http://www.w3.org/2000/svg" xml:space="preserve" width="1111.59mm" height="385.966mm" version="1.1" style="shape-rendering:geometricPrecision; text-rendering:geometricPrecision; image-rendering:optimizeQuality; fill-rule:evenodd; clip-rule:evenodd"
viewBox="0 0 121202.67 42084.05"
 xmlns:xlink="http://www.w3.org/1999/xlink"
 xmlns:xodm="http://www.corel.com/coreldraw/odm/2003">
 <defs>
  <style type="text/css">
   <![CDATA[
    .fil0 {fill:#2B2A29;fill-rule:nonzero}
    .fil1 {fill:#C02C68;fill-rule:nonzero}
   ]]>
  </style>
 </defs>
 <g id="Слой_x0020_1">
  <metadata id="CorelCorpID_0Corel-Layer"/>
  <path class="fil0" d="M5595.15 7011.45c542,-34.9 961.63,-122.36 1433.69,-297.28 961.63,-349.69 2412.96,-1223.87 2412.96,-3059.81 0,-3007.39 -3077.33,-3322.06 -4563.56,-3322.06l-4860.85 0 0 227.21c332.31,0 1521.28,-34.9 1521.28,1276.43l0 9791.5c0,1311.33 -1101.64,1258.91 -1538.67,1258.91l0 227.34 5053.02 0 0 -227.34c-489.58,0 -1695.93,69.95 -1695.93,-1276.43l0 -4580.95 699.39 0c2814.97,87.46 2272.96,6084.72 4231.26,6084.72l2902.54 0 0 -227.34c-612.06,0 -1398.79,-69.94 -1783.51,-1171.45 -804.25,-2185.63 -1556.19,-4703.45 -3811.63,-4703.45zm-2238.06 -5193.03c0,-1258.91 1223.87,-1258.91 1521.15,-1258.91 1940.78,0 2447.88,1328.85 2447.88,3094.85 0,2989.87 -2238.06,3147.26 -2430.36,3147.26l-1538.66 0 0 -4983.21zm22270.91 9459.32c-34.91,-69.94 -4301.21,-10962.95 -4301.21,-10962.95 0,0 -734.42,891.69 -2045.75,1171.45 0,0 507.09,52.42 821.76,664.49 87.45,157.27 -3077.34,8077.93 -3199.7,8375.2 -405.04,961.63 -929.65,2360.42 -2272.96,2360.42l0 227.34 4353.62 0 0 -227.34c-824.67,0 -2503.22,-542 -1524.07,-2972.36l594.55 -1538.66 4502.26 0 1154.07 2937.45c314.66,944.12 -122.49,1573.57 -1049.1,1573.57l0 227.34 4417.86 0 0 -227.34c-682,0 -839.27,-209.82 -1451.33,-1608.6zm-7483.51 -3164.79l2168.12 -5507.69 2150.72 5507.69 -4318.84 0zm19158.8 -932.44c-874.3,-839.27 -1905.88,-1384.19 -2954.97,-1961.22 -926.73,-489.57 -1835.93,-1154.07 -2133.21,-2185.63 -262.24,-856.79 -52.42,-2028.24 751.94,-2465.4 1258.91,-638.21 4493.51,174.92 4720.83,3496.96l244.85 0 262.24 -3112.23c0,0 -3059.81,-1477.49 -5682.6,-542 -1049.09,384.6 -1958.3,1381.27 -1993.21,2482.78 -52.56,1451.21 856.66,2832.61 2150.6,3569.82 1363.75,751.82 3007.39,1556.19 3899.09,2867.52 786.85,1171.45 349.7,3217.2 -1031.58,3689.26 -1311.33,440.08 -4231.4,-542 -4353.76,-3619.32l-244.72 0 -279.75 3112.36c0,0 4003.92,1821.34 6784.11,157.27 1541.46,-909.22 1716.36,-3724.17 -139.88,-5490.18zm8125.78 757.66l0 3671.75c0,1276.43 1119.03,1276.43 1730.96,1276.43l0 227.34 -5070.53 0 0 -227.34c524.48,0 1556.05,35.03 1556.05,-1258.91l0 -9791.5c0,-1241.39 -1031.57,-1258.92 -1538.66,-1258.92l0 -244.72 5158.11 0c1451.21,0 4353.64,542 4353.64,3706.78 0,3864.05 -3846.66,3899.09 -4650.9,3899.09l-1538.67 0zm0 -209.82l1556.18 0c716.78,0 2517.82,-646.96 2517.82,-3619.32 0,-1766 -52.56,-3549.52 -2535.33,-3549.52 -262.24,0 -524.61,0 -769.33,87.46 -384.73,122.36 -646.97,524.6 -734.43,909.21 -52.41,244.85 -34.9,489.58 -34.9,716.91l0 5455.27zm21484.19 -1171.45c0,3619.32 -2762.54,6556.78 -5927.33,6556.78 -3164.79,0 -5927.33,-2937.46 -5927.33,-6556.78 0,-3619.45 2762.54,-6556.91 5927.33,-6556.91 3164.79,0 5927.33,2937.46 5927.33,6556.91zm-2203.02 -87.46c0,-3427.03 -1451.34,-6242.11 -3724.3,-6242.11 -2255.58,0 -3724.3,2815.09 -3724.3,6242.11 0,3427.03 1468.72,6416.9 3724.3,6416.9 2272.96,0 3724.3,-2989.87 3724.3,-6416.9zm8283.18 1468.72l0 3671.75c0,1276.43 1119.02,1276.43 1730.96,1276.43l0 227.34 -5070.53 0 0 -227.34c524.47,0 1556.05,35.03 1556.05,-1258.91l0 -9791.5c0,-1241.39 -1031.58,-1258.92 -1538.67,-1258.92l0 -244.72 5158.12 0c1451.21,0 4353.62,542 4353.62,3706.78 0,3864.05 -3846.66,3899.09 -4650.9,3899.09l-1538.66 0zm0 -209.82l1556.18 0c716.78,0 2517.81,-646.96 2517.81,-3619.32 0,-1766 -52.54,-3549.52 -2535.33,-3549.52 -262.24,0 -524.6,0 -769.33,87.46 -384.72,122.36 -646.96,524.6 -734.42,909.21 -52.42,244.85 -34.9,489.58 -34.9,716.91l0 5455.27zm21484.18 -1171.45c0,3619.32 -2762.54,6556.78 -5927.33,6556.78 -3164.79,0 -5927.32,-2937.46 -5927.32,-6556.78 0,-3619.45 2762.53,-6556.91 5927.32,-6556.91 3164.79,0 5927.33,2937.46 5927.33,6556.91zm-2203.02 -87.46c0,-3427.03 -1451.33,-6242.11 -3724.3,-6242.11 -2255.57,0 -3724.29,2815.09 -3724.29,6242.11 0,3427.03 1468.72,6416.9 3724.29,6416.9 2272.97,0 3724.3,-2989.87 3724.3,-6416.9zm12514.44 -6137.14l0 227.21c842.19,0 2520.73,629.45 1541.58,3059.94l-2803.41 7203.75 -3380.44 -8445.27c-332.19,-804.24 -402.12,-1765.88 961.63,-1765.88l0 -279.75 -4414.8 0 0 279.75c941.2,0 1360.83,1311.34 1360.83,1311.34l4592.64 11749.79 4213.87 -10753.13c431.31,-961.76 955.8,-2360.55 2299.24,-2360.55l0 -227.21 -4371.15 0zm14962.32 10945.44c-34.9,-69.94 -4301.2,-10962.95 -4301.2,-10962.95 0,0 -734.43,891.69 -2045.76,1171.45 0,0 507.09,52.42 821.76,664.49 87.46,157.27 -3077.33,8077.93 -3199.69,8375.2 -405.05,961.63 -929.65,2360.42 -2272.97,2360.42l0 227.34 4353.62 0 0 -227.34c-824.67,0 -2503.21,-542 -1524.06,-2972.36l594.54 -1538.66 4502.27 0 1154.06 2937.45c314.67,944.12 -122.49,1573.57 -1049.09,1573.57l0 227.34 4417.86 0 0 -227.34c-682.01,0 -839.28,-209.82 -1451.34,-1608.6zm-7483.51 -3164.79l2168.12 -5507.69 2150.73 5507.69 -4318.85 0z"/>
  <path class="fil1" d="M49845.53 9255.73c-317.08,-616.51 -797.01,-1118.52 -1439.92,-1505.91 -642.91,-387.52 -1316.66,-581.36 -2021.13,-581.36 -722.11,0 -1541.2,184.95 -2457.01,554.83 -915.94,369.87 -1889.12,871.88 -2919.43,1506.03 -1030.43,634.02 -2109.22,1382.54 -3236.5,2245.68 -1127.16,863.01 -2263.32,1778.94 -3408.11,2747.69 -1021.55,863.01 -2038.78,1756.86 -3051.56,2681.55 -1012.67,924.7 -2003.49,1836.2 -2972.24,2734.49 -968.74,898.3 -1897.75,1778.95 -2787.28,2641.96 -889.42,863.14 -1717.26,1664.45 -2483.42,2404.21 -766.16,739.76 -1453.11,1404.75 -2060.73,1994.73 -607.75,590.1 -1105.32,1070.03 -1492.84,1439.92l-290.55 -79.33c70.45,-105.61 268.59,-427.13 594.42,-964.3 325.83,-537.18 713.36,-1180.08 1162.44,-1928.59 449.21,-748.65 924.69,-1549.97 1426.71,-2404.22 502.01,-854.25 981.94,-1642.49 1439.9,-2364.6 440.33,-722.12 876.21,-1422.27 1307.78,-2100.35 431.57,-678.19 814.65,-1325.42 1149.25,-1941.92 334.72,-616.51 607.74,-1210.93 819.09,-1783.39 211.34,-572.34 316.95,-1113.95 316.95,-1624.73 0,-264.27 -66,-519.65 -198.14,-766.28 -132.01,-246.51 -312.63,-462.29 -541.61,-647.23 -228.99,-184.94 -484.37,-334.72 -766.16,-449.09 -281.79,-114.49 -581.22,-171.74 -898.29,-171.74 -810.21,0 -1695.18,206.91 -2655.16,620.83 -959.98,413.92 -1924.27,937.89 -2893.02,1571.91 -968.74,634.15 -1910.95,1321.11 -2826.89,2060.86 -915.93,739.76 -1721.7,1444.23 -2417.41,2113.54 -695.71,669.32 -1254.97,1241.78 -1677.66,1717.26 -422.68,475.61 -634.14,757.41 -634.14,845.5 0,158.54 88.09,317.08 264.27,475.61 176.05,158.41 343.47,237.74 502.01,237.74 52.81,0 220.1,-92.54 501.89,-277.47 281.78,-184.95 612.06,-418.24 990.82,-700.03 378.64,-281.91 783.8,-594.55 1215.25,-938.02 431.56,-343.35 827.84,-669.31 1188.97,-977.49 361,-308.19 660.42,-581.23 898.29,-818.97 237.74,-237.87 356.56,-391.96 356.56,-462.41 0,-211.34 -83.65,-361 -250.95,-449.09 -167.29,-88.09 -250.95,-176.18 -250.95,-264.27 0,-87.97 259.7,-325.83 779.36,-713.36 519.53,-387.39 1290.13,-889.42 2311.68,-1505.91 510.91,-299.43 1030.43,-572.34 1558.85,-818.97 528.42,-246.63 1021.55,-453.52 1479.52,-620.82 457.96,-167.42 858.69,-295.12 1202.04,-383.21 343.47,-87.97 585.65,-132.01 726.55,-132.01 493.26,0 739.76,273.03 739.76,818.96 0,387.52 -158.42,924.7 -475.49,1611.66 -317.07,686.95 -717.79,1439.9 -1202.16,2258.87 -484.37,819.09 -1012.79,1673.34 -1585.12,2562.74 -572.47,889.42 -1114.08,1739.35 -1624.85,2549.55 -352.24,545.93 -744.2,1162.44 -1175.65,1849.39 -431.56,686.96 -867.45,1391.43 -1307.91,2113.54 -440.32,722.12 -876.2,1435.48 -1307.78,2140.07 -431.43,704.47 -814.52,1342.94 -1149.24,1915.4 -334.59,572.46 -603.18,1052.39 -805.76,1439.92 -202.58,387.52 -303.87,616.51 -303.87,686.96 0,228.98 101.29,418.24 303.87,568.01 202.59,149.65 374.32,224.55 515.22,224.55 52.81,0 193.7,-92.41 422.69,-277.35 228.99,-184.94 515.22,-427.11 858.69,-726.55 343.35,-299.43 726.43,-638.59 1149.24,-1017.23 422.69,-378.64 845.37,-761.72 1268.17,-1149.25 422.69,-387.51 827.72,-757.4 1215.25,-1109.64 387.51,-352.23 722.11,-651.66 1004.02,-898.29 545.93,-475.61 1272.49,-1153.69 2179.55,-2034.34 907.18,-880.65 1928.72,-1862.59 3064.76,-2945.83 1136.04,-1083.23 2355.73,-2228.03 3659.19,-3434.64 1303.34,-1206.48 2624.32,-2382.13 3962.93,-3527.05 1056.84,-898.29 2117.99,-1765.75 3183.7,-2602.36 1065.6,-836.6 2100.33,-1571.91 3104.24,-2206.07 1004.03,-634.02 1959.57,-1140.48 2866.63,-1519.12 907.05,-378.64 1739.34,-568.02 2496.61,-568.02 933.59,0 1682.09,237.74 2245.68,713.36 352.36,299.43 581.35,581.23 686.95,845.37 140.9,-105.6 259.83,-184.94 356.68,-237.74 96.85,-52.81 127.69,-140.9 92.54,-264.14zm-10347.59 16486c88.09,-140.9 110.18,-286.23 66.13,-435.89 -44.04,-149.77 -145.33,-224.67 -303.87,-224.67 -299.43,405.17 -744.07,915.94 -1334.18,1532.45 -590.1,616.38 -1228.57,1224.12 -1915.4,1822.99 -369.87,316.95 -744.19,616.38 -1122.83,898.16 -378.77,281.92 -753.09,532.86 -1122.97,752.96 -369.87,220.23 -726.43,391.97 -1069.9,515.22 -343.47,123.38 -656.11,184.95 -937.89,184.95 -281.92,0 -506.46,-101.29 -673.75,-303.75 -167.3,-202.58 -250.95,-480.05 -250.95,-832.29 0,-317.08 61.56,-660.42 184.94,-1030.3 123.25,-369.88 281.79,-739.75 475.48,-1109.64 405.17,-105.73 902.74,-281.91 1492.72,-528.42 590.1,-246.63 1153.67,-528.41 1690.85,-845.49 537.31,-317.08 999.59,-647.23 1387.11,-990.7 387.52,-343.48 581.23,-673.75 581.23,-990.83 0,-281.79 -114.5,-484.37 -343.48,-607.62 -228.99,-123.25 -422.68,-237.74 -581.22,-343.47 -158.54,-105.61 -321.39,-242.19 -488.82,-409.48 -167.29,-167.29 -374.19,-250.95 -620.82,-250.95 -352.24,0 -814.65,198.14 -1386.98,594.42 -572.47,396.28 -1140.48,915.94 -1704.19,1558.72 -563.57,642.91 -1047.95,1369.47 -1453.12,2179.67 -405.04,810.2 -607.61,1620.41 -607.61,2430.61 0,722.24 202.58,1272.61 607.61,1651.25 405.17,378.77 924.7,568.02 1558.85,568.02 369.88,0 761.71,-74.77 1175.65,-224.54 413.92,-149.65 832.28,-352.24 1254.97,-607.62 422.68,-255.38 845.49,-550.5 1268.17,-885.1 422.68,-334.59 836.61,-678.07 1241.78,-1030.43 792.56,-704.47 1426.58,-1325.29 1902.19,-1862.59 475.48,-537.18 818.96,-929.01 1030.3,-1175.63zm-3830.8 -1426.71c0,88.09 -118.94,228.99 -356.68,422.81 -237.74,193.69 -528.41,396.28 -871.89,607.62 -343.47,211.33 -717.67,409.47 -1122.84,594.42 -405.16,184.94 -775.04,312.63 -1109.64,383.08 228.99,-334.59 471.18,-651.66 726.56,-951.1 255.38,-299.43 510.78,-559.27 766.16,-779.37 255.38,-220.22 497.57,-396.28 726.56,-528.41 228.98,-132.14 422.68,-198.14 581.22,-198.14 281.79,0 462.41,44.04 541.61,132.13 79.33,87.97 118.94,193.7 118.94,316.96zm13086.9 3381.83c52.81,-88.09 83.65,-189.38 92.41,-303.87 8.89,-114.49 -30.85,-171.74 -118.94,-171.74 -52.8,52.81 -162.84,162.99 -330.15,330.28 -167.42,167.29 -369.87,361 -607.74,581.22 -237.74,220.1 -493.13,457.97 -766.16,713.36 -273.03,255.39 -541.61,488.69 -805.76,700.16 -510.77,405.04 -981.94,713.22 -1413.51,924.69 -431.44,211.34 -752.96,316.96 -964.3,316.96 -211.34,0 -317.08,-123.25 -317.08,-369.88 0,-162.86 145.34,-413.92 436.01,-757.28 290.55,-347.92 607.62,-722.24 951.1,-1127.28 343.47,-409.48 660.43,-814.65 951.1,-1224.13 290.68,-405.17 435.88,-739.75 435.88,-1008.34 0,-475.61 -167.29,-814.65 -501.88,-1021.68 -334.72,-202.45 -748.64,-303.74 -1241.78,-303.74 -299.43,0 -550.37,-8.89 -752.96,-26.41 -202.58,-17.64 -303.87,-70.44 -303.87,-158.53 0,-35.29 96.85,-167.3 290.67,-396.29 193.7,-228.98 413.93,-484.37 660.43,-766.15 281.91,-299.43 515.22,-590.11 700.15,-871.89 184.95,-281.79 277.47,-466.73 277.47,-554.82 0,-299.43 -273.03,-449.22 -819.09,-449.22 -281.79,0 -598.87,123.38 -946.66,369.88 -347.91,246.63 -678.19,532.86 -990.83,858.69 -312.63,325.83 -576.77,660.55 -797,1003.9 -220.1,343.47 -330.15,612.06 -330.15,805.89 0,308.19 123.25,541.61 369.88,704.47 246.5,162.98 559.12,246.63 937.89,246.63 347.79,0 664.87,-17.64 951.1,-52.81 290.55,-35.28 550.38,-52.94 779.37,-52.94 281.78,0 422.68,61.69 422.68,184.95 0,176.18 -145.21,444.77 -435.88,805.88 -290.68,361 -607.62,757.41 -946.78,1188.84 -339.04,431.57 -651.67,867.46 -937.9,1307.79 -286.1,440.32 -427.13,827.84 -427.13,1162.56 0,405.04 123.38,708.92 374.32,911.36 250.95,202.59 523.98,303.88 814.65,303.88 475.48,0 986.39,-154.1 1532.32,-462.29 546.05,-308.32 1065.58,-673.75 1558.84,-1096.43 651.67,-546.06 1171.2,-1034.88 1558.72,-1466.31 387.52,-431.57 607.62,-691.4 660.55,-779.37zm10392.01 -1717.38c-35.15,-35.16 -74.89,-118.81 -118.81,-250.95 -44.04,-132.14 -92.53,-268.59 -145.33,-409.48l0 -158.54c0,-581.22 -132.14,-999.59 -396.28,-1254.97 -264.27,-255.38 -563.7,-383.08 -898.29,-383.08 -228.99,0 -484.38,35.15 -766.16,105.73 -281.91,70.45 -484.37,105.6 -607.75,105.6 -52.8,0 -101.28,-30.85 -145.2,-92.41 -44.05,-61.68 -92.54,-132.13 -145.34,-211.46 -52.93,-79.2 -105.73,-149.65 -158.53,-211.34 -52.81,-61.56 -123.25,-92.41 -211.34,-92.41 -246.63,0 -537.18,105.61 -871.89,317.08 -334.6,211.34 -686.96,493.14 -1056.83,845.37 -369.88,352.24 -735.32,748.52 -1096.44,1188.97 -361,440.33 -691.27,889.42 -990.7,1347.38 -299.43,457.97 -537.18,907.06 -713.36,1347.38 -176.05,440.33 -264.14,827.85 -264.14,1162.44 0,581.35 189.25,1017.24 568.01,1307.78 378.64,290.68 849.81,436.01 1413.39,436.01 546.06,0 1109.64,-162.98 1690.98,-488.81 581.22,-325.84 1140.35,-726.56 1677.66,-1202.04 537.18,-475.61 1025.98,-990.83 1466.31,-1545.65 440.32,-554.82 792.56,-1061.15 1056.71,-1519.12 123.37,-17.64 237.86,-39.6 343.47,-66 105.73,-26.41 184.94,-39.6 237.74,-39.6 211.46,0 255.51,-79.33 132.13,-237.87zm-1215.24 -1638.06c0,35.28 -83.77,140.9 -251.08,317.08 -167.29,176.18 -250.93,413.92 -250.93,713.36 0,228.99 30.84,378.64 92.4,449.09 61.69,70.45 110.18,123.37 145.34,158.54 0,140.9 -92.41,347.92 -277.34,620.95 -184.95,272.91 -431.57,576.78 -739.76,911.5 -308.31,334.59 -651.79,678.07 -1030.43,1030.3 -378.64,352.24 -757.4,669.32 -1136.03,951.1 -378.64,281.79 -739.76,515.22 -1083.24,700.16 -343.47,184.94 -638.46,277.46 -885.09,277.46 -493.14,0 -739.76,-246.63 -739.76,-739.75 0,-281.91 92.54,-616.51 277.47,-1004.02 184.94,-387.52 435.88,-783.8 752.96,-1188.85 317.08,-405.17 678.07,-805.88 1083.24,-1202.16 405.04,-396.28 823.41,-748.52 1254.97,-1056.84 431.44,-308.19 867.46,-559.12 1307.78,-752.96 440.33,-193.69 845.37,-290.54 1215.25,-290.54 176.18,0 264.27,35.15 264.27,105.6zm14856.96 528.42c0,-369.88 -145.34,-656.11 -435.88,-858.57 -290.68,-202.58 -585.66,-303.87 -885.1,-303.87 -563.7,0 -1193.29,154.09 -1889,462.28 -695.83,308.32 -1400.3,682.52 -2113.66,1122.97 -713.36,440.32 -1400.18,907.05 -2060.73,1400.18 -660.56,493.13 -1228.57,933.58 -1704.07,1320.98 193.7,-281.79 383.09,-563.58 568.02,-845.37 184.95,-281.92 352.24,-537.31 502.01,-766.16 149.66,-228.99 268.59,-413.92 356.56,-554.82 88.09,-141.03 132.13,-228.99 132.13,-264.27 0,-105.61 -52.8,-224.55 -158.54,-356.68 -105.6,-132.14 -228.98,-198.14 -369.87,-198.14 -88.09,0 -242.19,105.73 -462.29,317.08 -220.22,211.33 -471.17,479.92 -752.96,805.75 -281.79,325.84 -581.22,682.52 -898.29,1070.03 -317.08,387.52 -607.62,752.96 -871.89,1096.44 -264.15,343.47 -479.93,638.46 -647.23,885.09 -167.42,246.51 -251.07,405.05 -251.07,475.49 0,70.45 44.04,149.77 132.13,237.86 88.09,87.97 189.38,171.61 303.87,250.95 114.5,79.2 220.1,145.33 316.96,198.14 96.98,52.81 162.98,79.2 198.14,79.2 17.64,0 136.58,-92.4 356.68,-277.34 220.22,-184.94 515.22,-422.68 885.09,-713.36 369.88,-290.67 788.25,-625.27 1254.98,-1003.9 466.73,-378.76 964.29,-761.84 1492.71,-1149.36 493.13,-369.88 995.15,-730.88 1505.91,-1083.11 510.78,-352.37 1004.03,-665 1479.52,-938.03 475.61,-272.89 920.25,-493.13 1334.17,-660.42 413.93,-167.29 770.61,-250.95 1070.03,-250.95 246.63,0 369.88,123.25 369.88,369.88 0,105.6 -70.45,308.19 -211.34,607.62 -140.9,299.42 -312.63,651.66 -515.22,1056.83 -202.45,405.04 -422.68,840.92 -660.42,1307.78 -237.87,466.73 -457.97,920.25 -660.55,1360.58 -202.59,440.32 -374.33,849.8 -515.22,1228.57 -140.9,378.64 -211.34,673.62 -211.34,884.97 0,281.91 96.85,537.3 290.67,766.28 193.7,228.86 343.48,343.35 449.09,343.35 105.73,0 264.27,-61.56 475.61,-184.95 211.34,-123.24 427.13,-264.14 647.23,-422.68 220.23,-158.54 409.48,-308.19 568.02,-449.09 158.54,-140.9 237.87,-237.87 237.87,-290.67 0,-52.81 -8.89,-110.05 -26.54,-171.74 -17.51,-61.56 -61.56,-92.41 -132,-92.41 -105.74,0 -237.87,48.36 -396.29,145.21 -158.53,96.98 -281.91,145.33 -369.87,145.33 -88.09,0 -132.14,-52.81 -132.14,-158.54 0,-17.51 57.24,-145.21 171.74,-383.08 114.49,-237.74 264.14,-541.62 449.09,-911.5 184.94,-369.88 378.76,-783.68 581.22,-1241.64 202.59,-457.97 396.41,-902.74 581.35,-1334.3 184.95,-431.44 334.6,-832.17 449.09,-1202.04 114.49,-369.88 171.74,-660.56 171.74,-871.89zm9493.72 -3038.24c0,-88.09 -17.65,-224.54 -52.81,-409.48 -35.29,-184.94 -70.45,-321.51 -105.73,-409.6 -35.16,-176.06 -220.1,-264.15 -554.82,-264.15 -193.7,0 -374.33,110.05 -541.62,330.28 -167.29,220.1 -250.95,418.24 -250.95,594.42 0,88.09 35.16,180.5 105.61,277.34 70.57,96.98 154.22,189.38 251.07,277.47 96.86,88.09 193.7,162.86 290.55,224.55 96.98,61.68 171.74,92.53 224.67,92.53 52.81,0 114.5,-30.85 184.95,-92.53 70.45,-61.69 140.89,-132.14 211.33,-211.34 70.45,-79.2 127.7,-158.54 171.74,-237.74 44.05,-79.33 66.01,-136.58 66.01,-171.74zm-792.57 6552.08c17.65,-105.6 0,-184.94 -52.93,-237.74 -52.81,-52.81 -105.61,-79.2 -158.41,-79.2 -158.54,140.9 -400.73,321.39 -726.56,541.49 -325.83,220.22 -665,444.77 -1017.23,673.75 -387.52,228.98 -761.72,427.11 -1122.84,594.42 -361.12,167.42 -656.11,251.07 -885.1,251.07 -105.6,0 -184.94,-39.73 -237.74,-118.94 -52.81,-79.2 -79.2,-154.09 -79.2,-224.54 0,-211.34 127.69,-502.01 383.08,-871.89 255.39,-369.88 515.1,-722.11 779.37,-1056.83 123.25,-158.42 273.03,-330.15 449.09,-515.1 176.18,-184.94 343.47,-361.12 502.01,-528.41 158.54,-167.3 299.43,-321.52 422.68,-462.42 123.38,-140.89 211.34,-237.74 264.28,-290.54 88.09,-123.38 158.54,-325.84 211.33,-607.75 52.81,-281.79 79.21,-493.13 79.21,-634.02 0,-123.25 -70.45,-242.19 -211.34,-356.68 -140.9,-114.5 -317.08,-171.74 -528.42,-171.74 -158.54,0 -312.63,44.05 -462.28,132.14 -149.78,88.09 -286.23,198.14 -409.48,330.27 -123.38,132.01 -224.67,268.59 -303.87,409.48 -79.21,140.9 -118.94,255.38 -118.94,343.48 0,176.05 -88.09,369.87 -264.15,581.22 -35.28,52.81 -154.09,215.78 -356.68,488.69 -202.58,273.03 -418.36,598.86 -647.35,977.63 -228.87,378.64 -431.44,779.36 -607.62,1202.04 -176.06,422.81 -264.15,801.45 -264.15,1136.03 0,387.52 96.86,651.79 290.55,792.69 193.83,140.9 422.81,211.34 686.96,211.34 405.17,0 823.41,-110.05 1254.97,-330.28 431.44,-220.1 797.01,-418.36 1096.44,-594.42 140.89,-88.09 316.95,-211.34 528.41,-369.88 211.34,-158.53 418.24,-317.07 620.83,-475.6 202.58,-158.54 387.52,-308.19 554.82,-449.09 167.29,-140.9 277.34,-237.74 330.27,-290.68zm19903.26 -16248.26c0,-140.89 -44.05,-290.55 -132.14,-449.07 -88.09,-158.54 -198.14,-308.2 -330.27,-449.22 -132.14,-140.9 -273.04,-255.38 -422.69,-343.35 -149.77,-88.09 -295.12,-132.13 -436.01,-132.13 -598.86,0 -1246.08,184.94 -1941.8,554.82 -695.71,369.88 -1413.51,867.45 -2153.27,1492.71 -739.75,625.27 -1492.71,1351.83 -2258.87,2179.67 -766.15,827.85 -1514.8,1699.62 -2245.67,2615.56 -731,915.93 -1435.47,1844.95 -2113.67,2787.28 -678.07,942.34 -1307.78,1849.4 -1888.99,2721.29 -581.23,871.76 -1100.76,1673.21 -1558.72,2404.21 -457.97,730.88 -827.85,1334.18 -1109.64,1809.8 -88.09,140.89 -242.19,405.04 -462.41,792.56 -220.1,387.52 -444.78,797 -673.63,1228.44 -228.99,431.56 -431.56,841.05 -607.74,1228.57 -176.06,387.52 -264.15,660.55 -264.15,819.09 0,140.9 44.05,268.59 132.14,383.09 87.96,114.49 211.34,171.73 369.88,171.73 352.23,-651.79 726.55,-1290.25 1122.83,-1915.52 396.28,-625.27 797.01,-1246.09 1202.04,-1862.6 317.08,0 651.67,-17.64 1004.03,-52.8 352.23,-35.29 713.22,-79.33 1083.11,-132.14 228.99,88.09 396.4,184.94 502.01,290.68 317.08,299.42 559.27,651.66 726.56,1056.7 167.29,405.17 334.72,797.01 502.01,1175.77 167.29,378.64 374.32,700.16 620.82,964.3 246.63,264.15 598.87,396.28 1056.84,396.28 264.14,0 519.53,-61.68 766.16,-184.94 246.63,-123.25 475.6,-273.03 686.95,-449.09 211.34,-176.18 409.48,-365.56 594.42,-568.02 184.95,-202.58 347.92,-374.32 488.82,-515.2l0 -132.14c0,-52.81 -44.05,-105.61 -132.14,-158.54 -88.09,88.09 -193.69,189.38 -317.08,303.87 -123.24,114.5 -255.38,220.1 -396.28,317.08 -140.9,96.85 -286.23,176.06 -435.88,237.74 -149.78,61.69 -286.23,92.41 -409.6,92.41 -545.93,0 -973.06,-118.81 -1281.25,-356.68 -308.32,-237.74 -568.15,-515.09 -779.49,-832.16 -211.34,-317.08 -396.29,-634.02 -554.83,-951.1 -158.53,-317.08 -369.87,-563.7 -634.02,-739.76 -88.09,-17.64 -149.77,-52.8 -184.94,-105.73 651.66,-123.24 1290.13,-281.78 1915.4,-475.48 625.27,-193.82 1184.52,-409.6 1677.66,-647.36 493.26,-237.74 889.54,-488.68 1188.97,-752.96 299.42,-264.14 449.07,-537.18 449.07,-818.96 0,-158.54 -39.6,-352.36 -118.81,-581.23 -79.33,-228.98 -189.38,-449.21 -330.27,-660.55 -140.9,-211.34 -308.32,-387.52 -502.02,-528.41 -193.69,-140.9 -396.28,-211.34 -607.62,-211.34 -369.87,0 -814.64,114.49 -1334.17,343.47 -519.65,228.99 -1034.87,502.01 -1545.65,818.97 -510.77,317.08 -977.49,638.46 -1400.18,964.29 -422.81,325.96 -713.36,576.91 -871.89,753.09 387.52,-563.7 774.92,-1114.07 1162.44,-1651.25 387.52,-537.31 783.8,-1078.92 1188.97,-1624.85 1320.98,-563.7 2628.75,-1180.08 3923.33,-1849.4 1294.58,-669.31 2505.5,-1470.75 3632.79,-2404.21 440.32,-352.24 915.8,-770.6 1426.58,-1254.97 510.77,-484.38 990.83,-1003.9 1439.92,-1558.72 449.07,-554.82 823.41,-1131.73 1122.83,-1730.59 299.43,-598.86 449.22,-1206.48 449.22,-1822.99zm-792.69 369.88c0,440.33 -140.9,915.94 -422.68,1426.71 -281.79,510.78 -625.27,1008.34 -1030.43,1492.71 -405.05,484.38 -832.17,937.9 -1281.38,1360.58 -449.09,422.81 -832.16,766.29 -1149.24,1030.43 -1003.9,845.5 -2065.18,1585.25 -3183.57,2219.27 -1118.39,634.15 -2276.51,1206.49 -3474.25,1717.26 193.83,-281.78 449.22,-629.58 766.16,-1043.51 317.08,-413.92 673.75,-863.13 1070.03,-1347.51 396.28,-484.37 823.41,-995.14 1281.38,-1532.31 457.97,-537.18 924.7,-1070.03 1400.31,-1598.45 510.77,-545.93 1025.98,-1074.34 1545.52,-1585.12 519.52,-510.77 1021.55,-959.98 1505.91,-1347.38 484.37,-387.52 942.34,-695.71 1373.91,-924.7 431.44,-228.99 805.76,-343.47 1122.84,-343.47 316.95,0 475.48,158.54 475.48,475.48zm-7899.59 12813.74c0,211.34 -255.38,435.88 -766.16,673.62 -510.77,237.87 -1113.95,462.42 -1809.66,673.75 -695.84,211.34 -1409.07,387.52 -2140.07,528.42 -731.01,140.9 -1307.78,211.34 -1730.46,211.34 176.06,-123.25 519.53,-339.04 1030.3,-647.36 510.78,-308.19 1070.03,-625.27 1677.66,-951.1 607.75,-325.83 1188.97,-612.06 1743.79,-858.57 554.82,-246.63 955.55,-369.87 1202.04,-369.87 528.42,0 792.56,246.5 792.56,739.75zm-5918.06 2404.22c-158.41,0 -272.91,-4.45 -343.35,-13.2 -70.45,-8.89 -35.28,-13.2 105.61,-13.2 88.09,0 167.29,8.77 237.74,26.41zm22386.67 -1928.73c88.09,-193.69 101.29,-334.59 39.73,-422.68 -61.69,-88.09 -118.94,-132.14 -171.74,-132.14 -70.45,88.09 -184.94,220.23 -343.47,396.28 -158.54,176.19 -352.24,378.77 -581.22,607.75 -228.99,228.99 -475.61,479.93 -739.76,752.96 -264.27,273.03 -528.41,541.61 -792.69,805.76 -493.13,457.97 -959.85,863.01 -1400.18,1215.37 -440.32,352.24 -757.4,528.42 -951.1,528.42 -140.9,0 -233.42,-52.94 -277.47,-158.54 -44.04,-105.73 -66,-228.99 -66,-369.88 0,-176.18 35.16,-378.77 105.61,-607.74 70.44,-228.87 149.77,-462.29 237.86,-700.03 87.97,-237.87 167.3,-466.86 237.74,-686.96 70.45,-220.22 105.61,-409.47 105.61,-568.01 0,-246.63 -66,-422.69 -198.14,-528.42 -132.01,-105.73 -303.75,-158.54 -515.09,-158.54 -88.09,0 -220.23,44.05 -396.41,132.14 105.73,-176.18 220.23,-378.77 343.47,-607.62 123.38,-228.99 233.43,-453.65 330.28,-673.75 96.85,-220.23 176.18,-422.69 237.74,-607.62 61.69,-184.94 92.53,-330.28 92.53,-436.01 0,-405.04 -118.93,-704.47 -356.68,-898.29 -237.74,-193.7 -532.86,-290.55 -885.09,-290.55 -422.69,0 -880.65,145.33 -1373.79,435.88 -493.26,290.68 -981.94,669.32 -1466.31,1136.04 -484.37,466.85 -951.1,995.14 -1400.3,1585.25 -449.09,589.97 -845.37,1193.28 -1188.85,1809.79 -343.47,616.38 -620.95,1215.25 -832.29,1796.46 -211.33,581.35 -316.95,1092.12 -316.95,1532.44 0,264.15 57.24,501.89 171.74,713.36 114.37,211.34 259.7,316.95 435.88,316.95 123.25,0 317.08,-92.4 581.22,-277.34 264.15,-184.94 554.82,-405.17 871.89,-660.55 316.96,-255.38 638.47,-528.42 964.3,-818.97 325.83,-290.67 603.31,-541.61 832.16,-752.96 228.99,-211.33 480.06,-436 753.09,-673.75 272.91,-237.74 528.29,-457.96 766.16,-660.55 237.74,-202.46 440.32,-374.19 607.62,-515.09 167.29,-140.9 259.82,-211.34 277.34,-211.34 35.28,0 66.13,17.52 92.53,52.81 26.41,35.16 30.85,79.2 13.2,132.14 -35.16,70.44 -83.65,272.89 -145.33,607.61 -61.56,334.6 -92.41,616.51 -92.41,845.37 0,457.97 70.45,845.5 211.34,1162.57 140.89,316.95 369.87,475.48 686.95,475.48 211.34,0 457.84,-74.77 739.76,-224.54 281.78,-149.65 559.12,-330.28 832.16,-541.62 273.03,-211.33 537.18,-431.56 792.56,-660.42 255.38,-228.99 480.05,-422.81 673.75,-581.35 176.18,-158.42 396.28,-374.2 660.55,-647.23 264.15,-273.04 523.97,-546.06 779.37,-819.09 255.38,-272.91 479.92,-519.53 673.62,-739.76 193.82,-220.1 308.32,-356.55 343.47,-409.48zm-5257.51 -2245.67c0,70.45 -61.68,220.23 -184.94,444.77 -123.25,228.99 -259.83,471.17 -409.48,726.56 -149.77,255.38 -295.12,488.69 -436.01,708.91 -140.89,220.1 -228.98,347.79 -264.14,383.09 -70.45,88.09 -140.9,162.98 -211.34,224.54 -70.45,61.69 -105.73,110.05 -105.73,145.33 0,35.29 44.05,79.2 132.14,132.14 88.09,52.81 193.69,96.85 317.08,127.69 -264.28,228.99 -546.06,484.37 -845.5,766.16 -299.43,281.78 -607.62,559.26 -924.7,841.05 -299.42,264.14 -634.02,559.14 -1003.9,880.65 -369.87,325.83 -726.55,625.27 -1070.03,898.29 -343.47,273.04 -642.91,497.57 -898.29,682.51 -255.38,184.95 -409.48,277.35 -462.41,277.35 -52.81,0 -79.2,-88.09 -79.2,-264.15 0,-281.78 140.9,-682.51 422.68,-1210.93 281.79,-523.97 678.2,-1122.83 1188.97,-1787.7 387.39,-510.78 810.2,-1021.68 1268.17,-1528.01 457.84,-510.78 907.06,-959.98 1347.38,-1356.26 440.33,-396.28 836.61,-713.36 1188.84,-959.86 352.37,-246.63 616.51,-369.87 792.69,-369.87 158.42,0 237.74,79.2 237.74,237.74z"/>
  <path class="fil0" d="M39414.29 36908.67l-1086.4 2590.93c-71.08,165 -135.83,330.15 -206.91,495.28 -71.08,-165.13 -135.81,-330.28 -206.9,-495.28l-1086.41 -2590.93 -135.68 0 0 4426.1 129.22 0 0 -3651.43c0,-152.32 0,-317.46 0,-469.9l174.65 412.78 1060.51 2520.98 129.22 0 1060.51 -2520.98c58.13,-139.75 116.52,-273.03 174.65,-412.78l0 469.9 0 3651.43 129.22 0 0 -4426.1 -135.7 0zm3246.03 4445.14l135.81 0 -1215.63 -4445.14 -155.1 0 -1215.88 4445.14 135.95 0 349.19 -1289.11 1616.6 0 349.07 1289.11zm-1933.3 -1409.7l484.88 -1790.87c96.98,-361.89 194.08,-717.55 290.93,-1079.56l291.18 1079.56 484.88 1790.87 -1551.87 0zm3711.61 1485.86c724.15,0 1138.07,-393.61 1189.73,-1187.44l-129.22 0c-51.79,723.89 -413.92,1066.86 -1060.51,1066.86 -594.93,0 -976.36,-381.05 -976.36,-1174.88l0 -2000.32c0,-800.05 381.43,-1181.1 976.36,-1181.1 633.77,0 969.88,342.84 1034.62,1066.86l129.35 0c-64.73,-793.82 -452.77,-1187.57 -1163.97,-1187.57 -672.48,0 -1105.83,431.83 -1105.83,1301.81l0 2000.32c0,863.65 433.35,1295.47 1105.83,1295.47zm3834.48 -4521.3l-2205.06 0 0 120.58 1021.68 0 0 4324.56 129.34 0 0 -4324.56 1054.05 0 0 -120.58zm2689.93 120.58l0 -120.58 -1959.2 0 0 4445.14 1959.2 0 0 -120.7 -1829.98 0 0 -2082.82 1687.81 0 0 -120.71 -1687.81 0 0 -2000.32 1829.98 0zm3006.88 1181.23c-6.35,-819.22 -452.64,-1301.81 -1241.39,-1301.81l-918.22 0 0 4445.14 129.22 0 0 -1797.1 789 0c788.75,0 1247.86,-501.63 1241.39,-1346.23zm-129.22 0c-6.48,768.31 -394.5,1225.52 -1112.18,1225.52l-789 0 0 -2406.75 789 0c717.67,0 1118.65,438.17 1112.18,1181.23zm4746.35 3028.97l0 -4330.78 -1694.27 0 -77.56 2292.38c-25.9,819.22 -219.85,1727.29 -485.01,2038.4l-316.81 0 0 819.21 129.34 0 0 -698.51 2702.89 0 0 698.51 129.47 0 0 -819.21 -388.04 0zm-129.47 0l-1972.26 0c258.82,-399.97 426.88,-1244.57 459.24,-2038.4l77.56 -2171.8 1435.47 0 0 4210.2zm3323.84 -4210.2l0 -120.58 -1959.19 0 0 4445.14 1959.19 0 0 -120.7 -1829.98 0 0 -2082.82 1687.81 0 0 -120.71 -1687.81 0 0 -2000.32 1829.98 0zm3039.25 -120.58l-2191.99 0 0 4445.14 129.22 0 0 -4324.56 1933.42 0 0 4324.56 129.35 0 0 -4445.14zm1125.24 4445.14l129.22 0 1791.26 -3721.25 213.37 -444.52 0 495.3 0 3670.47 129.34 0 0 -4445.14 -129.34 0 -1778.31 3695.87c-77.56,158.67 -148.77,311.11 -226.33,469.9l0 -393.74 0 -3772.03 -129.22 0 0 4445.14zm3659.95 -4445.14c-116.53,2387.71 -174.65,3130.64 -239.27,3530.73 -38.97,247.64 -168.18,838.26 -530.32,838.26l0 120.58c452.64,0 607.87,-654.08 653.06,-946.15 77.69,-482.59 129.48,-1181.23 239.27,-3422.84l1422.66 0 0 4324.56 129.34 0 0 -4445.14 -1674.74 0zm2489.52 4445.14l155.23 0 1222.09 -1867.03 685.43 0 0 1867.03 129.34 0 0 -4445.14 -866.43 0c-698.37,0 -1215.63,438.17 -1215.63,1289.12 0,806.4 459.12,1250.9 1112.18,1288.99l-1222.21 1867.03zm1325.67 -1987.61c-646.71,0 -1086.41,-374.7 -1086.41,-1168.41 0,-793.84 439.7,-1168.54 1086.41,-1168.54l737.09 0 0 2336.94 -737.09 0zm4468.24 2717.86l122.74 0 0 -850.95 -413.79 0 0 -4324.44 -129.35 0 0 4324.44 -1926.95 0 0 -4324.44 -129.34 0 0 4445.14 2476.68 0 0 730.25zm969.88 -730.25l129.22 0 1791.26 -3721.25 213.37 -444.52 0 495.3 0 3670.47 129.34 0 0 -4445.14 -129.34 0 -1778.31 3695.87c-77.56,158.67 -148.77,311.11 -226.33,469.9l0 -393.74 0 -3772.03 -129.22 0 0 4445.14zm3388.44 0l129.22 0 1791.13 -3721.25 213.37 -444.52 0 495.3 0 3670.47 129.47 0 0 -4445.14 -129.47 0 -1778.18 3695.87c-77.56,158.67 -148.77,311.11 -226.33,469.9l0 -393.74 0 -3772.03 -129.22 0 0 4445.14z"/>
 </g>
</svg>
